<svg xmlns="http://www.w3.org/2000/svg" width="1270" height="600" viewBox="0 0 1270 600" role="img">
<style>
text { font-family: Arial, sans-serif; fill: #17211d; }
.title { font-size: 24px; font-weight: 700; } .subtitle { font-size: 13px; fill: #53625b; }
.axis { stroke: #9eaaa3; stroke-width: 1; } .grid { stroke: #d9e1dc; stroke-width: 1; }
.label { font-size: 12px; fill: #53625b; } .value { font-size: 12px; font-weight: 700; }
</style><rect width="100%" height="100%" fill="#fbfcfa"/><text class="title" x="92" y="38">Return versus closed-ledger drawdown</text><text class="subtitle" x="92" y="60">Right is worse drawdown. Higher is better return. Circle size represents closed-trade count.</text><line class="grid" x1="92" y1="522.0" x2="970" y2="522.0"/><text class="label" x="82" y="526.0" text-anchor="end">$-933</text><line class="grid" x1="92" y1="434.0" x2="970" y2="434.0"/><text class="label" x="82" y="438.0" text-anchor="end">$-676</text><line class="grid" x1="92" y1="346.0" x2="970" y2="346.0"/><text class="label" x="82" y="350.0" text-anchor="end">$-419</text><line class="grid" x1="92" y1="258.0" x2="970" y2="258.0"/><text class="label" x="82" y="262.0" text-anchor="end">$-162</text><line class="grid" x1="92" y1="170.0" x2="970" y2="170.0"/><text class="label" x="82" y="174.0" text-anchor="end">$94</text><line class="grid" x1="92" y1="82.0" x2="970" y2="82.0"/><text class="label" x="82" y="86.0" text-anchor="end">$351</text><line class="grid" x1="92.0" y1="82" x2="92.0" y2="522"/><text class="label" x="92.0" y="546" text-anchor="middle">$0</text><line class="grid" x1="267.6" y1="82" x2="267.6" y2="522"/><text class="label" x="267.6" y="546" text-anchor="middle">$182</text><line class="grid" x1="443.2" y1="82" x2="443.2" y2="522"/><text class="label" x="443.2" y="546" text-anchor="middle">$364</text><line class="grid" x1="618.8" y1="82" x2="618.8" y2="522"/><text class="label" x="618.8" y="546" text-anchor="middle">$546</text><line class="grid" x1="794.4" y1="82" x2="794.4" y2="522"/><text class="label" x="794.4" y="546" text-anchor="middle">$728</text><line class="grid" x1="970.0" y1="82" x2="970.0" y2="522"/><text class="label" x="970.0" y="546" text-anchor="middle">$910</text><line class="axis" x1="92" y1="202.3" x2="970" y2="202.3"/><text class="subtitle" x="992" y="70">Numbered strategy key</text><circle cx="123.5" cy="97.7" r="12.3" fill="#64748b" fill-opacity=".83"/><text x="123.5" y="101.7" text-anchor="middle" font-size="11" fill="#ffffff">1</text><circle cx="998" cy="90" r="7" fill="#64748b"/><text x="998" y="94" text-anchor="middle" font-size="10" fill="#ffffff">1</text><text class="value" x="1010" y="94">Spot Impulse ($305, DD $33)</text><circle cx="622.2" cy="101.5" r="11.7" fill="#087e8b" fill-opacity=".83"/><text x="622.2" y="105.5" text-anchor="middle" font-size="11" fill="#ffffff">2</text><circle cx="998" cy="117" r="7" fill="#087e8b"/><text x="998" y="121" text-anchor="middle" font-size="10" fill="#ffffff">2</text><text class="value" x="1010" y="121">MR Balanced ($294, DD $550)</text><circle cx="622.0" cy="101.6" r="11.7" fill="#7b61a8" fill-opacity=".83"/><text x="622.0" y="105.6" text-anchor="middle" font-size="11" fill="#ffffff">3</text><circle cx="998" cy="144" r="7" fill="#7b61a8"/><text x="998" y="148" text-anchor="middle" font-size="10" fill="#ffffff">3</text><text class="value" x="1010" y="148">MR Strict ($294, DD $550)</text><circle cx="536.6" cy="131.6" r="10.8" fill="#d15d27" fill-opacity=".83"/><text x="536.6" y="135.6" text-anchor="middle" font-size="11" fill="#ffffff">4</text><circle cx="998" cy="171" r="7" fill="#d15d27"/><text x="998" y="175" text-anchor="middle" font-size="10" fill="#ffffff">4</text><text class="value" x="1010" y="175">MR Conservative ($206, DD $461)</text><circle cx="550.2" cy="176.0" r="12.9" fill="#64748b" fill-opacity=".83"/><text x="550.2" y="180.0" text-anchor="middle" font-size="11" fill="#ffffff">5</text><circle cx="998" cy="198" r="7" fill="#64748b"/><text x="998" y="202" text-anchor="middle" font-size="10" fill="#ffffff">5</text><text class="value" x="1010" y="202">MR Liquid ($77, DD $475)</text><circle cx="534.2" cy="183.2" r="13.0" fill="#64748b" fill-opacity=".83"/><text x="534.2" y="187.2" text-anchor="middle" font-size="11" fill="#ffffff">6</text><circle cx="998" cy="225" r="7" fill="#64748b"/><text x="998" y="229" text-anchor="middle" font-size="10" fill="#ffffff">6</text><text class="value" x="1010" y="229">MR Discovery ($56, DD $459)</text><circle cx="104.9" cy="206.9" r="7.4" fill="#64748b" fill-opacity=".83"/><text x="104.9" y="210.9" text-anchor="middle" font-size="11" fill="#ffffff">7</text><circle cx="998" cy="252" r="7" fill="#64748b"/><text x="998" y="256" text-anchor="middle" font-size="10" fill="#ffffff">7</text><text class="value" x="1010" y="256">Spot Impulse Confirmed ($-13, DD $13)</text><circle cx="139.0" cy="217.7" r="7.8" fill="#64748b" fill-opacity=".83"/><text x="139.0" y="221.7" text-anchor="middle" font-size="11" fill="#ffffff">8</text><circle cx="998" cy="279" r="7" fill="#64748b"/><text x="998" y="283" text-anchor="middle" font-size="10" fill="#ffffff">8</text><text class="value" x="1010" y="283">Late High Conviction ($-45, DD $49)</text><circle cx="161.6" cy="226.1" r="7.9" fill="#64748b" fill-opacity=".83"/><text x="161.6" y="230.1" text-anchor="middle" font-size="11" fill="#ffffff">9</text><circle cx="998" cy="306" r="7" fill="#64748b"/><text x="998" y="310" text-anchor="middle" font-size="10" fill="#ffffff">9</text><text class="value" x="1010" y="310">Late Dominant ($-69, DD $72)</text><circle cx="905.0" cy="487.8" r="12.6" fill="#b42318" fill-opacity=".83"/><text x="905.0" y="491.8" text-anchor="middle" font-size="11" fill="#ffffff">10</text><circle cx="998" cy="333" r="7" fill="#b42318"/><text x="998" y="337" text-anchor="middle" font-size="10" fill="#ffffff">10</text><text class="value" x="1010" y="337">Book Pressure ($-833, DD $843)</text><text class="label" x="92" y="582">Drawdown is measured from successive realized closes, not intratrade mark-to-market.</text></svg>